<?xml version="1.0" encoding="UTF-8"?>
<svg version="1.1" xmlns="http://www.w3.org/2000/svg" width="470" height="470">
<path d="M0 0 C1.27433395 -0.01142029 2.54866791 -0.02284058 3.86161804 -0.03460693 C5.27165183 -0.03709748 6.68168606 -0.03934771 8.09172058 -0.04138184 C9.57847586 -0.05064176 11.0652264 -0.06069157 12.55197144 -0.07147217 C16.58926412 -0.09768935 20.62649034 -0.11060386 24.66385484 -0.11949348 C27.18730641 -0.1253597 29.7107399 -0.13357018 32.23418236 -0.14250183 C40.13269713 -0.16984307 48.03117047 -0.18918083 55.92972928 -0.19690561 C65.04169179 -0.2058666 74.15305419 -0.24096367 83.26483423 -0.2989068 C90.31211218 -0.34216305 97.35922142 -0.36231532 104.40663069 -0.36498785 C108.6139714 -0.3670823 112.82074766 -0.37886032 117.02794838 -0.41462708 C120.98692462 -0.4476296 124.94491342 -0.45188188 128.90397835 -0.43434906 C130.35398253 -0.4328104 131.80404024 -0.4414671 133.25391006 -0.46126556 C145.55832052 -0.61938466 145.55832052 -0.61938466 150.0788269 3.1418457 C152.72392649 5.91671831 154.80241727 8.96876559 156.733078 12.28088379 C157.72887878 13.96891113 157.72887878 13.96891113 158.74479675 15.69104004 C159.43026653 16.88658095 160.11382178 18.08322135 160.795578 19.28088379 C161.32465759 20.2048999 161.32465759 20.2048999 161.86442566 21.14758301 C163.56679456 24.1218989 165.25981197 27.10037534 166.936203 30.08947754 C168.18409388 32.23134067 169.50971563 34.32960813 170.904953 36.37854004 C172.795578 39.28088379 172.795578 39.28088379 173.77604675 41.73791504 C175.12483796 45.10214139 177.10168472 47.97195594 179.108078 50.96838379 C182.28624675 55.8012442 185.07008031 60.62302486 187.5533905 65.85510254 C189.46800932 69.59402797 191.81170828 73.03888054 194.10417175 76.55432129 C196.17255269 79.88857047 197.84664374 83.34263887 199.545578 86.87463379 C201.24637937 90.14867641 203.31215228 93.11256388 205.40104675 96.14807129 C206.65948516 98.07274179 207.68574526 99.95709501 208.670578 102.03088379 C211.01885836 106.96524505 213.98251089 111.5177486 216.89323425 116.13244629 C218.70034856 119.12327612 220.23682318 122.15552147 221.795578 125.28088379 C223.33914984 128.01288828 224.94161981 130.70899523 226.545578 133.40588379 C227.44807611 134.93183417 228.35041943 136.45787612 229.25260925 137.98400879 C229.90930603 139.0929248 229.90930603 139.0929248 230.57926941 140.22424316 C233.34204322 144.89578202 236.06817707 149.58864097 238.795578 154.28088379 C239.21484558 155.00066406 239.63411316 155.72044434 240.06608582 156.46203613 C249.55980789 172.76502558 249.55980789 172.76502558 252.920578 179.09338379 C255.52947556 183.9633259 258.51830387 188.53578615 261.54338074 193.15222168 C264.22997459 197.29241501 266.50860007 201.4891205 268.6315155 205.93713379 C270.27351152 209.24316604 272.19320563 212.35336612 274.11979675 215.49963379 C276.79575502 219.94085124 279.3210665 224.46669068 281.8658905 228.98400879 C283.15598919 231.18814502 284.51172365 233.35510226 285.9283905 235.48010254 C287.72929564 238.18146024 289.11186966 240.94287288 290.51823425 243.86291504 C292.79078238 248.1647722 295.47133506 252.22956459 298.08854675 256.32775879 C301.67558162 262.53324702 301.61522892 269.25530449 300.795578 276.28088379 C298.42652697 283.00275869 294.54818024 288.8950221 290.5065155 294.72229004 C287.04771826 299.89469231 283.94338356 305.29537878 280.76774597 310.64465332 C279.45087162 312.86105008 278.12247575 315.07047427 276.795578 317.28088379 C275.90482535 318.77299509 275.01421699 320.26519254 274.123703 321.75744629 C269.32581241 329.78666476 264.51649019 337.78944917 259.436203 345.64416504 C257.09322802 349.40966054 254.94937968 353.28471044 252.78166199 357.15246582 C250.24244304 361.62923396 247.38945484 365.7657512 244.36979675 369.92541504 C242.7898588 372.28944131 241.60750219 374.6379377 240.420578 377.21838379 C235.81673945 386.68016886 230.82671603 392.95295752 220.82653236 396.44288826 C216.09757076 397.7503473 211.6087579 397.83170009 206.72795105 397.78259277 C205.15991982 397.79069725 205.15991982 397.79069725 203.56021118 397.79896545 C200.14227545 397.81136315 196.72519657 397.79502673 193.30729675 397.77697754 C190.91600501 397.77713268 188.52471301 397.77862409 186.13342285 397.78138733 C181.13975308 397.78276711 176.14637202 397.77027884 171.15275574 397.74743652 C164.75595246 397.71897636 158.35962564 397.72181592 151.96278667 397.73452663 C147.03254124 397.7414819 142.10240584 397.73369747 137.17217445 397.72126961 C134.8130873 397.71675908 132.45398834 397.71641481 130.09490013 397.72033501 C126.8017642 397.7232476 123.50928517 397.70673974 120.2162323 397.68493652 C118.75969238 397.691689 118.75969238 397.691689 117.27372742 397.69857788 C112.10104596 397.64171998 108.12205339 397.4363348 103.795578 394.28088379 C99.77812112 388.95714577 100.39251864 382.95949269 100.45500183 376.58410645 C100.45456375 375.41280182 100.45412567 374.24149719 100.45367432 373.03469849 C100.45576081 369.17127696 100.47908622 365.30829182 100.50260925 361.44494629 C100.5082057 358.76308457 100.51262318 356.08124687 100.51547241 353.39938354 C100.52478229 347.0671335 100.54938159 340.73503956 100.57952088 334.40285814 C100.61309796 327.19127006 100.62955919 319.97967438 100.64460719 312.76802754 C100.67593222 297.93888899 100.73093097 283.1099179 100.795578 268.28088379 C117.295578 268.28088379 133.795578 268.28088379 150.795578 268.28088379 C144.7276959 257.65021079 144.7276959 257.65021079 138.608078 247.05041504 C137.795578 245.28088379 137.795578 245.28088379 137.795578 242.28088379 C137.135578 242.28088379 136.475578 242.28088379 135.795578 242.28088379 C128.05351858 228.77550469 128.05351858 228.77550469 125.295578 223.78088379 C119.231351 212.81627133 113.0236523 201.91607197 106.295578 191.34338379 C103.78653337 187.35937362 101.572876 183.23415532 99.342453 179.08947754 C97.3935511 175.55094101 95.30931369 172.10620147 93.19010925 168.66760254 C92.18063415 166.93990145 91.24522863 165.16822092 90.358078 163.37463379 C88.73068163 160.15238896 86.9065127 157.14735802 84.983078 154.09338379 C81.85897765 149.09151882 78.96478037 144.00337288 76.18229675 138.80432129 C74.19993637 135.1969838 72.01770573 131.74478877 69.795578 128.28088379 C64.71036209 136.32063856 59.93952731 144.48284293 55.38591003 152.83508301 C53.06500756 157.07411803 50.63338731 161.20420383 48.04777527 165.2869873 C45.91586481 168.68166711 43.88790228 172.13700329 41.858078 175.59338379 C41.41987732 176.33902588 40.98167664 177.08466797 40.53019714 177.85290527 C37.71251474 182.66677162 34.98622531 187.51962044 32.33854675 192.42932129 C26.96831408 202.35405509 21.37041103 212.08274803 15.32707214 221.61364746 C12.38384122 226.27573913 9.68141752 231.02260453 7.09635925 235.89416504 C5.86768058 238.14858746 4.55454979 240.30671185 3.170578 242.46838379 C1.5808504 244.95359086 0.19209593 247.4318166 -1.079422 250.09338379 C-4.18097244 256.49986503 -8.26314533 262.36896878 -12.204422 268.28088379 C4.625578 268.28088379 21.455578 268.28088379 38.795578 268.28088379 C38.86333504 283.82330503 38.9185831 299.36565303 38.95101452 314.90818214 C38.96647419 322.12508054 38.98754639 329.34188057 39.02189636 336.55871582 C39.05182642 342.84994396 39.07115955 349.14110084 39.07784349 355.4323982 C39.08174969 358.76269791 39.09249106 362.0927466 39.11276817 365.42299271 C39.13452196 369.14348728 39.1375457 372.86355858 39.13615417 376.58410645 C39.14694 377.68462341 39.15772583 378.78514038 39.1688385 379.91900635 C39.12854769 389.86419483 39.12854769 389.86419483 35.795578 394.28088379 C30.68545715 398.00787506 25.44638926 397.71308364 19.37492371 397.68493652 C17.82003487 397.6952314 17.82003487 397.6952314 16.23373413 397.70573425 C12.81280241 397.72400822 9.39232925 397.72016231 5.97135925 397.71447754 C3.58489839 397.7190404 1.19843884 397.72434629 -1.1880188 397.73036194 C-6.19052973 397.73929528 -11.19288107 397.73686885 -16.19538879 397.72692871 C-22.58630017 397.71546365 -28.976657 397.73561221 -35.36749554 397.76484585 C-40.29794787 397.78325407 -45.22826862 397.78290571 -50.15874672 397.77720833 C-52.51371346 397.77705555 -54.86868937 397.7830639 -57.22362328 397.7954998 C-60.52835972 397.8104875 -63.83208867 397.79967337 -67.13679504 397.78259277 C-68.0977005 397.79226074 -69.05860596 397.80192871 -70.04862976 397.81188965 C-77.84687118 397.72809295 -85.53575616 396.15153168 -91.7903595 391.25744629 C-98.6084986 382.2956128 -104.12227206 372.56572334 -109.72517395 362.81384277 C-111.47229332 359.82220002 -113.29439748 356.88514667 -115.15339661 353.96203613 C-116.50632305 351.79798236 -117.74603373 349.57281302 -119.001297 347.35119629 C-121.21269977 343.54586036 -123.55108038 339.81766938 -125.86457825 336.07385254 C-128.9712475 331.04509063 -132.04736365 325.99766227 -135.12532043 320.95129395 C-137.22987998 317.50300902 -139.33808806 314.05754162 -141.47395325 310.62854004 C-144.55035045 305.68159922 -147.53547667 300.74000182 -150.266922 295.59338379 C-152.73054993 290.96986287 -155.56759521 286.77372708 -158.688797 282.56994629 C-162.74648235 276.44158646 -163.07410655 270.46040735 -162.204422 263.28088379 C-161.00197826 259.96540786 -159.11539839 257.23178687 -157.204422 254.28088379 C-156.13035731 252.40153513 -155.08518535 250.50755059 -154.04011536 248.61193848 C-150.30190512 241.83658146 -146.35458424 235.22372874 -142.25520325 228.65979004 C-139.46485173 224.06235373 -136.85018487 219.37297632 -134.26106262 214.65979004 C-132.42716712 211.34479926 -130.49383286 208.29223955 -128.204422 205.28088379 C-127.44092716 203.84022569 -126.71371265 202.37996076 -126.016922 200.90588379 C-121.64340032 191.98861354 -116.58574491 183.45161929 -111.329422 175.03088379 C-107.56788737 168.98715325 -104.10753829 162.79959825 -100.70491028 156.54748535 C-98.93430387 153.3108312 -97.14551995 150.1926398 -95.095047 147.12072754 C-93.19138282 144.26129808 -91.72642589 141.356766 -90.204422 138.28088379 C-88.93310408 136.18507099 -87.6404888 134.10206326 -86.329422 132.03088379 C-83.87760892 128.11915286 -81.58308505 124.19433948 -79.579422 120.03088379 C-78.05138388 116.85804717 -76.40063412 113.98528301 -74.391922 111.09338379 C-71.22174193 106.50152503 -68.68088151 101.65551584 -66.09577942 96.72180176 C-64.06094281 92.8507917 -61.93521902 89.11481593 -59.5559845 85.44885254 C-57.26500085 81.77400883 -55.16976606 77.98250584 -53.05793762 74.20251465 C-51.28233396 71.05257617 -49.37607664 68.16425718 -47.204422 65.28088379 C-46.44092716 63.84022569 -45.71371265 62.37996076 -45.016922 60.90588379 C-40.64340032 51.98861354 -35.58574491 43.45161929 -30.329422 35.03088379 C-26.60515352 29.0559255 -23.19665367 22.9337733 -19.88069153 16.7232666 C-10.83167693 0.05815353 -10.83167693 0.05815353 0 0 Z " fill="#38A651" transform="translate(164.2044219970703,36.7191162109375)"/>
<path d="M0 0 C6.8526571 1.2188029 11.18874938 4.79434369 15.15234375 10.3828125 C17.57643655 14.27860898 19.83415869 18.26271557 22.08984375 22.2578125 C23.08388369 24.00036242 24.07793752 25.74290467 25.07301331 27.48486328 C25.753273 28.67619309 26.43282359 29.86792807 27.11167908 31.06005859 C30.55876031 37.11100713 34.07137788 43.12313857 37.58984375 49.1328125 C41.82271659 56.37512063 46.0271871 63.63094145 50.17578125 70.921875 C52.1264574 74.33748581 54.09073088 77.74476957 56.06298828 81.14794922 C56.9942336 82.75711258 57.92231998 84.36810838 58.84716797 85.98095703 C61.28238217 90.21644476 63.7731357 94.40111004 66.37109375 98.5390625 C66.88889404 99.38186768 67.40669434 100.22467285 67.94018555 101.09301758 C68.93191128 102.70439325 69.94293814 104.30410126 70.97583008 105.8894043 C73.30061241 109.71255691 74.61726527 112.20908821 73.6015625 116.69140625 C72.45212153 119.61922758 71.53329221 121.79726946 69.65234375 124.2578125 C65.92575168 129.50434139 62.91454203 135.0912139 59.84375 140.73583984 C57.48843864 145.04609713 55.02941541 149.24900682 52.40014648 153.39770508 C50.2685895 156.78876159 48.24301466 160.24174737 46.21484375 163.6953125 C45.77664307 164.44095459 45.33844238 165.18659668 44.88696289 165.95483398 C42.06928049 170.76870033 39.34299105 175.62154915 36.6953125 180.53125 C31.32507983 190.4559838 25.72717678 200.18467674 19.68383789 209.71557617 C16.74060696 214.37766784 14.03818327 219.12453324 11.453125 223.99609375 C10.22444633 226.25051618 8.91131553 228.40864056 7.52734375 230.5703125 C5.93761615 233.05551957 4.54886168 235.53374531 3.27734375 238.1953125 C0.17579331 244.60179374 -3.90637958 250.47089749 -7.84765625 256.3828125 C8.98234375 256.3828125 25.81234375 256.3828125 43.15234375 256.3828125 C43.22010078 271.92523374 43.27534884 287.46758174 43.30778027 303.01011086 C43.32323993 310.22700926 43.34431213 317.44380928 43.37866211 324.66064453 C43.40859216 330.95187267 43.4279253 337.24302955 43.43460923 343.53432691 C43.43851544 346.86462662 43.44925681 350.19467531 43.46953392 353.52492142 C43.4912877 357.24541599 43.49431144 360.96548729 43.49291992 364.68603516 C43.50370575 365.78655212 43.51449158 366.88706909 43.52560425 368.02093506 C43.48531344 377.96612354 43.48531344 377.96612354 40.15234375 382.3828125 C35.0422229 386.10980377 29.80315501 385.81501235 23.73168945 385.78686523 C22.17680061 385.79716011 22.17680061 385.79716011 20.59049988 385.80766296 C17.16956815 385.82593694 13.749095 385.82209102 10.328125 385.81640625 C7.94166414 385.82096911 5.55520459 385.826275 3.16874695 385.83229065 C-1.83376399 385.84122399 -6.83611532 385.83879756 -11.83862305 385.82885742 C-18.22953443 385.81739236 -24.61989125 385.83754092 -31.01072979 385.86677456 C-35.94118212 385.88518278 -40.87150287 385.88483442 -45.80198097 385.87913704 C-48.15694771 385.87898426 -50.51192362 385.88499261 -52.86685753 385.89742851 C-56.17159398 385.91241621 -59.47532292 385.90160209 -62.7800293 385.88452148 C-63.74093475 385.89418945 -64.70184021 385.90385742 -65.69186401 385.91381836 C-73.49010544 385.83002166 -81.17899041 384.25346039 -87.43359375 379.359375 C-94.25173285 370.39754151 -99.76550631 360.66765205 -105.3684082 350.91577148 C-107.11552757 347.92412873 -108.93763173 344.98707538 -110.79663086 342.06396484 C-112.1495573 339.89991107 -113.38926798 337.67474173 -114.64453125 335.453125 C-116.85593402 331.64778907 -119.19431464 327.91959809 -121.5078125 324.17578125 C-124.61448175 319.14701934 -127.6905979 314.09959098 -130.76855469 309.05322266 C-132.87311423 305.60493773 -134.98132231 302.15947033 -137.1171875 298.73046875 C-140.1935847 293.78352793 -143.17871093 288.84193053 -145.91015625 283.6953125 C-148.37378419 279.07179158 -151.21082946 274.87565579 -154.33203125 270.671875 C-158.3897166 264.54351517 -158.7173408 258.56233606 -157.84765625 251.3828125 C-156.64521251 248.06733657 -154.75863264 245.33371558 -152.84765625 242.3828125 C-151.77359156 240.50346384 -150.72841961 238.6094793 -149.68334961 236.71386719 C-145.94513937 229.93851017 -141.99781849 223.32565745 -137.8984375 216.76171875 C-135.10808598 212.16428244 -132.49341913 207.47490503 -129.90429688 202.76171875 C-128.07040137 199.44672797 -126.13706711 196.39416827 -123.84765625 193.3828125 C-123.08416141 191.9421544 -122.3569469 190.48188947 -121.66015625 189.0078125 C-117.28663457 180.09054225 -112.22897917 171.553548 -106.97265625 163.1328125 C-103.21112162 157.08908196 -99.75077254 150.90152696 -96.34814453 144.64941406 C-94.57753812 141.41275991 -92.7887542 138.29456851 -90.73828125 135.22265625 C-88.83461707 132.36322679 -87.36966014 129.45869471 -85.84765625 126.3828125 C-84.57633833 124.2869997 -83.28372306 122.20399197 -81.97265625 120.1328125 C-79.52084318 116.22108157 -77.2263193 112.29626819 -75.22265625 108.1328125 C-73.69461814 104.95997588 -72.04386837 102.08721172 -70.03515625 99.1953125 C-66.86497618 94.60345374 -64.32411576 89.75744456 -61.73901367 84.82373047 C-59.70417706 80.95272041 -57.57845327 77.21674464 -55.19921875 73.55078125 C-52.9082351 69.87593754 -50.81300031 66.08443455 -48.70117188 62.30444336 C-46.92556821 59.15450488 -45.01931089 56.26618589 -42.84765625 53.3828125 C-42.08416141 51.9421544 -41.3569469 50.48188947 -40.66015625 49.0078125 C-34.62675648 36.70618003 -27.44534767 24.77934963 -19.84765625 13.3828125 C-19.18765625 13.3828125 -18.52765625 13.3828125 -17.84765625 13.3828125 C-17.84765625 12.7228125 -17.84765625 12.0628125 -17.84765625 11.3828125 C-16.23828125 9.796875 -16.23828125 9.796875 -14.09765625 8.0078125 C-11.76468226 6.05415072 -9.7830589 4.30408447 -7.84765625 1.9453125 C-5.29444835 -0.04938117 -3.19286599 -0.1783724 0 0 Z " fill="#0371B7" transform="translate(159.84765625,48.6171875)"/>
<path d="M0 0 C0.33 0 0.66 0 1 0 C1.03738281 0.79664063 1.07476562 1.59328125 1.11328125 2.4140625 C1.49913496 10.67713366 1.49913496 10.67713366 5 18 C9.68972757 21.61499833 13.20124704 23.11669235 19.06828308 23.15821838 C20.11576218 23.1680072 21.16324127 23.17779602 22.24246216 23.18788147 C23.96552078 23.19651466 23.96552078 23.19651466 25.72338867 23.20532227 C27.53820992 23.22017166 27.53820992 23.22017166 29.38969421 23.23532104 C32.70758731 23.26151452 36.02545627 23.2833742 39.34338927 23.30332303 C42.81076506 23.32518984 46.27809712 23.35257513 49.74543762 23.37937927 C56.31143412 23.42929676 62.87745491 23.47423909 69.44349891 23.51740164 C76.91866669 23.56678208 84.39379058 23.62169722 91.86891592 23.67708123 C107.24590339 23.79088678 122.62293122 23.89772892 138 24 C138.33 23.01 138.66 22.02 139 21 C156.16 21.33 173.32 21.66 191 22 C191.06775703 37.54242124 191.12300509 53.08476924 191.15543652 68.62729836 C191.17089618 75.84419676 191.19196838 83.06099678 191.22631836 90.27783203 C191.25624841 96.56906017 191.27558155 102.86021705 191.28226548 109.15151441 C191.28617169 112.48181412 191.29691306 115.81186281 191.31719017 119.14210892 C191.33894395 122.86260349 191.34196769 126.58267479 191.34057617 130.30322266 C191.351362 131.40373962 191.36214783 132.50425659 191.3732605 133.63812256 C191.33296969 143.58331104 191.33296969 143.58331104 188 148 C182.88987915 151.72699127 177.65081126 151.43219985 171.5793457 151.40405273 C170.54275314 151.41091599 169.50616058 151.41777924 168.43815613 151.42485046 C165.0172244 151.44312444 161.59675125 151.43927852 158.17578125 151.43359375 C155.78932039 151.43815661 153.40286084 151.4434625 151.0164032 151.44947815 C146.01389226 151.45841149 141.01154093 151.45598506 136.0090332 151.44604492 C129.61812182 151.43457986 123.227765 151.45472842 116.83692646 151.48396206 C111.90647413 151.50237028 106.97615338 151.50202192 102.04567528 151.49632454 C99.69070854 151.49617176 97.33573263 151.50218011 94.98079872 151.51461601 C91.67606227 151.52960371 88.37233333 151.51878959 85.06762695 151.50170898 C83.62626877 151.51621094 83.62626877 151.51621094 82.15579224 151.53100586 C74.35755081 151.44720916 66.66866584 149.87064789 60.4140625 144.9765625 C53.5959234 136.01472901 48.08214994 126.28483955 42.47924805 116.53295898 C40.73212868 113.54131623 38.91002452 110.60426288 37.05102539 107.68115234 C35.69809895 105.51709857 34.45838827 103.29192923 33.203125 101.0703125 C30.99172223 97.26497657 28.65334161 93.53678559 26.33984375 89.79296875 C23.2331745 84.76420684 20.15705835 79.71677848 17.07910156 74.67041016 C14.97454202 71.22212523 12.86633394 67.77665783 10.73046875 64.34765625 C7.65407155 59.40071543 4.66894532 54.45911803 1.9375 49.3125 C-0.52612794 44.68897908 -3.36317321 40.49284329 -6.484375 36.2890625 C-10.53295564 30.17445359 -10.89569411 24.1655529 -10 17 C-8.74477164 13.6803878 -6.99334108 10.92248652 -5 8 C-4.08116037 6.48047851 -3.16438874 4.959704 -2.25 3.4375 C-1.5317598 2.27149612 -0.79165892 1.11745702 0 0 Z " fill="#38A551" transform="translate(12,283)"/>
<path d="M0 0 C1.35568336 0.00333092 1.35568336 0.00333092 2.73875427 0.00672913 C3.75973709 0.00680466 4.78071991 0.00688019 5.8326416 0.00695801 C6.94304306 0.01211929 8.05344452 0.01728058 9.19749451 0.02259827 C10.89336952 0.02472069 10.89336952 0.02472069 12.62350464 0.02688599 C16.25105891 0.03250433 19.8785525 0.04505994 23.50608826 0.05775452 C25.95856133 0.06276715 28.41103536 0.06733047 30.86351013 0.07142639 C36.89022371 0.08247971 42.91690165 0.09923568 48.94358826 0.12025452 C49.61513759 1.40938939 50.28067685 2.70165656 50.94358826 3.99525452 C51.31483826 4.71455139 51.68608826 5.43384827 52.06858826 6.17494202 C52.94358826 8.12025452 52.94358826 8.12025452 52.94358826 10.12025452 C53.60358826 10.12025452 54.26358826 10.12025452 54.94358826 10.12025452 C56.4243378 12.17784224 57.75835675 14.20814104 59.06858826 16.37025452 C59.44112732 16.95677795 59.81366638 17.54330139 60.19749451 18.14759827 C62.25839881 21.50694778 62.94358826 23.07496456 62.94358826 27.12025452 C63.60358826 27.12025452 64.26358826 27.12025452 64.94358826 27.12025452 C65.50046326 28.11283264 66.05733826 29.10541077 66.63108826 30.12806702 C68.65460124 33.7324216 70.68228497 37.33441114 72.71214294 40.93519592 C73.48957598 42.31466176 74.26635678 43.69449558 75.04222107 45.07484436 C79.0254907 52.1555857 83.11813194 59.09536556 87.69358826 65.81556702 C88.94358826 68.12025452 88.94358826 68.12025452 88.94358826 72.12025452 C89.60358826 72.12025452 90.26358826 72.12025452 90.94358826 72.12025452 C92.58945076 74.50883476 94.09486885 76.87874765 95.56858826 79.37025452 C95.98882263 80.05216858 96.40905701 80.73408264 96.84202576 81.43666077 C97.43757263 82.43246155 97.43757263 82.43246155 98.04515076 83.44837952 C98.40947205 84.05585022 98.77379333 84.66332092 99.14915466 85.28919983 C99.94358826 87.12025452 99.94358826 87.12025452 99.94358826 91.12025452 C100.60358826 91.12025452 101.26358826 91.12025452 101.94358826 91.12025452 C103.41624451 93.20228577 103.41624451 93.20228577 105.00608826 95.93275452 C105.53331482 96.82607483 106.06054138 97.71939514 106.60374451 98.63978577 C109.5508148 104.09573223 110.06652206 110.16722404 108.36546326 116.15541077 C106.31484605 120.39645999 103.22643789 122.90397114 99.12333679 125.08146667 C91.5764358 127.54695377 83.25758015 126.76190871 75.40452576 126.67884827 C73.39391894 126.67459254 71.38330719 126.67226896 69.37269592 126.67178345 C65.17148868 126.66563636 60.97081842 126.6430228 56.76976013 126.60731506 C51.39539592 126.56198628 46.02151612 126.54728455 40.64697838 126.54357815 C36.49988569 126.53914179 32.35289373 126.52382512 28.20584488 126.50470161 C26.22438506 126.49584891 24.24291462 126.48910469 22.26144028 126.48454094 C19.49043118 126.47545893 16.71985112 126.45303528 13.94895935 126.426651 C13.13734848 126.42598633 12.32573761 126.42532166 11.48953247 126.42463684 C0.09891876 126.27558502 0.09891876 126.27558502 -3.05641174 123.12025452 C-3.15452309 121.54102723 -3.18273066 119.95740918 -3.18339539 118.37513733 C-3.18621521 117.34868103 -3.18903503 116.32222473 -3.19194031 115.2646637 C-3.18991608 114.12903992 -3.18789185 112.99341614 -3.18580627 111.82337952 C-3.18843475 110.0406665 -3.18843475 110.0406665 -3.19111633 108.22193909 C-3.19477445 104.95342676 -3.19390146 101.68495463 -3.19073725 98.41644287 C-3.18821321 95.00293388 -3.19055131 91.58942767 -3.19212341 88.17591858 C-3.19394498 82.4425152 -3.19153913 76.70912469 -3.18678284 70.97572327 C-3.18134024 64.33819676 -3.1831029 57.70070096 -3.18860924 51.0631752 C-3.19314074 45.37401185 -3.19379074 39.68485778 -3.19117057 33.99569321 C-3.189608 30.59356431 -3.1894135 27.19144988 -3.19270706 23.7893219 C-3.19523184 19.99856964 -3.19139545 16.20787729 -3.18580627 12.41712952 C-3.18783051 11.28150574 -3.18985474 10.14588196 -3.19194031 8.97584534 C-3.18912048 7.94938904 -3.18630066 6.92293274 -3.18339539 5.8653717 C-3.18301836 4.96792236 -3.18264133 4.07047302 -3.18225288 3.14582825 C-3.01044008 0.38028192 -2.76651078 0.16177957 0 0 Z " fill="#006BB3" transform="translate(270.05641174316406,306.87974548339844)"/>
<path d="M0 0 C0.66 0.33 1.32 0.66 2 1 C2 1.99 2 2.98 2 4 C-14.17 4.33 -30.34 4.66 -47 5 C-47.33 44.6 -47.66 84.2 -48 125 C-50.17334504 121.73998243 -50.24838084 120.85023413 -50.24050903 117.08357239 C-50.24325836 116.06974991 -50.24600769 115.05592743 -50.24884033 114.01138306 C-50.24164978 112.90008026 -50.23445923 111.78877747 -50.22705078 110.64379883 C-50.22734283 109.47293228 -50.22763489 108.30206573 -50.22793579 107.09571838 C-50.22678049 103.88518508 -50.21674407 100.6748257 -50.20278788 97.4643271 C-50.19029264 94.10909419 -50.18911097 90.75385793 -50.18673706 87.39860535 C-50.18051873 81.04504771 -50.16410317 74.69155882 -50.14403808 68.33803147 C-50.12169003 61.10473557 -50.11068841 53.8714364 -50.10064721 46.63811457 C-50.07973722 31.75869844 -50.04305661 16.87937161 -50 2 C-33.5 2 -17 2 0 2 C0 1.34 0 0.68 0 0 Z " fill="#72BBDD" transform="translate(315,303)"/>
<path d="M0 0 C17.16 0.33 34.32 0.66 52 1 C52.04512525 16.59424674 52.08197656 32.18844186 52.10362434 47.78273487 C52.11394239 55.02323047 52.12801277 62.26368265 52.15087891 69.50415039 C52.17079666 75.81402718 52.1837126 82.12387254 52.18817699 88.4337799 C52.19078712 91.7756592 52.19693293 95.11744857 52.21146011 98.45929909 C52.22590828 102.18752067 52.22798073 105.91555391 52.22705078 109.64379883 C52.23424133 110.75510162 52.24143188 111.86640442 52.24884033 113.01138306 C52.246091 114.02520554 52.24334167 115.03902802 52.24050903 116.08357239 C52.24235262 116.96572827 52.24419621 117.84788416 52.24609566 118.75677204 C52 121 52 121 50 124 C50.33 84.07 50.66 44.14 51 3 C33.84 3 16.68 3 -1 3 C-0.67 2.01 -0.34 1.02 0 0 Z " fill="#C8E8C5" transform="translate(151,304)"/>
<path d="M0 0 C1.2800441 -0.00990463 2.5600882 -0.01980927 3.87892151 -0.03001404 C5.2900858 -0.02577631 6.70124916 -0.02121848 8.1124115 -0.01637268 C9.60418204 -0.02207723 11.09594822 -0.02904182 12.58770752 -0.03717041 C16.63306856 -0.05510479 20.67821273 -0.05393331 24.72360158 -0.04822803 C28.10105242 -0.0451375 31.47846152 -0.05122689 34.85590643 -0.05726677 C42.82197731 -0.07131042 50.78794093 -0.0697512 58.75401306 -0.05836487 C66.97422754 -0.046875 75.19411609 -0.06097413 83.41428763 -0.08776134 C90.47259002 -0.10990173 97.53078996 -0.11655975 104.58912462 -0.11068493 C108.80458314 -0.10731121 113.01983257 -0.1097582 117.23526192 -0.12693596 C121.19739339 -0.14237742 125.15904073 -0.13848121 129.12115288 -0.11963081 C130.57561524 -0.11593755 132.03011327 -0.11907491 133.48454285 -0.1295166 C135.46874405 -0.14267501 137.45306984 -0.12880286 139.43725586 -0.11352539 C140.54797486 -0.11331611 141.65869387 -0.11310682 142.80307102 -0.1128912 C146.27602182 0.49665286 147.45741907 1.70266276 149.65513611 4.38768005 C148.79493079 4.06347328 147.93472548 3.73926651 147.04845333 3.40523529 C143.61991248 2.37711753 140.92793918 2.12649812 137.36206055 2.10679626 C135.49692055 2.08966583 135.49692055 2.08966583 133.59410095 2.07218933 C132.22911112 2.06969914 130.86412084 2.06744883 129.49913025 2.06541443 C128.05148823 2.05614869 126.60385106 2.04609812 125.15621948 2.0353241 C121.23474398 2.00916954 117.31333679 1.99620562 113.39178777 1.98730278 C110.93968436 1.9814286 108.48759938 1.97321681 106.03550529 1.96429443 C98.35697905 1.93697451 90.67849523 1.91762431 82.99992377 1.90989065 C74.14719637 1.90092406 65.2950858 1.86579215 56.44254595 1.80788946 C49.59055481 1.76463221 42.73873713 1.74448102 35.88661093 1.74180841 C31.79778273 1.73971475 27.70953553 1.72795268 23.62085152 1.69216919 C19.77510704 1.65916301 15.93037905 1.65491596 12.08454323 1.6724472 C10.67646304 1.67398546 9.26832766 1.66533436 7.86038589 1.6455307 C-1.05288593 1.35203093 -1.05288593 1.35203093 -8.61270142 5.43223572 C-9.11028237 5.98267799 -9.60786333 6.53312027 -10.1205225 7.10024261 C-10.72657149 7.73752415 -10.72657149 7.73752415 -11.34486389 8.38768005 C-12.00486389 8.38768005 -12.66486389 8.38768005 -13.34486389 8.38768005 C-12.42771828 5.30273573 -11.76501387 3.70368279 -9.15938663 1.74394131 C-5.86134382 0.15468157 -3.6517559 0.00798615 0 0 Z " fill="#D1EBCD" transform="translate(164.34486389160156,36.61231994628906)"/>
<path d="M0 0 C0.33 0.99 0.66 1.98 1 3 C1.99 2.01 2.98 1.02 4 0 C4.66 0.33 5.32 0.66 6 1 C4.71451591 2.33929505 3.42141845 3.67128643 2.125 5 C1.40570313 5.7425 0.68640625 6.485 -0.0546875 7.25 C-2 9 -2 9 -4 9 C-4.33 9.66 -4.66 10.32 -5 11 C-4.46884894 6.48521602 -2.63379708 3.65333143 0 0 Z " fill="#69B9CE" transform="translate(146,51)"/>
<path d="M0 0 C3.67758005 3.28355362 5.81389118 6.62778237 8 11 C7.67 11.66 7.34 12.32 7 13 C6.34 11.35 5.68 9.7 5 8 C4.34 8 3.68 8 3 8 C0 2.25 0 2.25 0 0 Z " fill="#CFEAD1" transform="translate(364,126)"/>
<path d="M0 0 C3.67758005 3.28355362 5.81389118 6.62778237 8 11 C7.67 11.66 7.34 12.32 7 13 C6.34 11.35 5.68 9.7 5 8 C4.34 8 3.68 8 3 8 C0 2.25 0 2.25 0 0 Z " fill="#C5E7C0" transform="translate(317,45)"/>
<path d="M0 0 C2.0625 0.4375 2.0625 0.4375 4 1 C2.37660195 2.70884005 0.70680947 4.37446717 -1 6 C-1.66 6 -2.32 6 -3 6 C-1.125 1.125 -1.125 1.125 0 0 Z " fill="#9AD592" transform="translate(154,39)"/>
</svg>
